<?xml version="1.0" encoding="UTF-8"?>
<svg xmlns="http://www.w3.org/2000/svg" xmlns:xlink="http://www.w3.org/1999/xlink" width="300px" height="338px" viewBox="0 0 300 337" version="1.1">
<defs>
<clipPath id="clip1">
  <path d="M 94.140625 84.25 L 205.863281 84.25 L 205.863281 252.75 L 94.140625 252.75 Z M 94.140625 84.25 "/>
</clipPath>
</defs>
<g id="surface1">
<path style=" stroke:none;fill-rule:nonzero;fill:rgb(29.411765%,0.784314%,53.333333%);fill-opacity:1;" d="M 19.652344 212.703125 L 23.144531 217.0625 L 21.398438 211.394531 C 20.960938 208.777344 17.90625 211.832031 19.652344 212.703125 M 23.582031 210.085938 C 24.890625 212.265625 26.203125 214.445312 26.203125 216.628906 C 26.203125 219.679688 28.820312 220.988281 31.003906 221.859375 C 27.945312 218.371094 26.199219 208.777344 23.582031 210.085938 M 191.265625 25.207031 C 198.6875 25.207031 205.675781 24.335938 213.539062 26.078125 C 232.75 30.875 248.90625 40.46875 259.824219 53.988281 L 290.394531 102.824219 C 291.703125 115.03125 294.324219 128.546875 293.886719 143.375 C 296.945312 143.375 296.507812 139.011719 300 138.140625 C 296.507812 146.863281 294.757812 157.761719 293.886719 170.40625 C 291.703125 163.429688 293.886719 152.964844 294.324219 147.296875 C 291.265625 152.09375 289.519531 148.605469 289.519531 146.425781 C 289.957031 142.9375 288.210938 143.371094 286.898438 142.066406 C 282.09375 137.703125 279.039062 132.90625 275.546875 125.496094 C 277.730469 119.828125 278.167969 111.542969 271.179688 107.183594 C 268.996094 105.875 266.375 103.695312 265.066406 100.207031 C 263.320312 95.410156 260.261719 89.742188 261.136719 82.328125 C 261.570312 80.148438 254.585938 87.125 250.65625 84.074219 C 233.625 72.300781 216.59375 58.78125 196.070312 47.445312 C 185.152344 47.445312 177.292969 43.523438 173.363281 38.726562 C 169.871094 34.363281 172.488281 28.695312 177.730469 28.261719 C 180.785156 28.261719 184.28125 27.386719 186.898438 29.132812 C 187.335938 27.390625 189.082031 25.207031 191.265625 25.207031 M 148.035156 15.179688 L 148.910156 15.617188 C 153.277344 16.488281 155.460938 22.59375 160.261719 20.410156 C 160.261719 23.464844 160.699219 26.515625 159.824219 28.695312 C 158.515625 32.183594 154.585938 32.183594 151.527344 32.183594 C 122.269531 30.441406 105.238281 42.648438 87.335938 53.113281 C 82.53125 56.167969 77.292969 58.347656 73.363281 62.269531 C 54.585938 79.710938 34.0625 95.84375 29.257812 128.113281 L 25.328125 163.867188 C 24.890625 167.792969 20.523438 171.714844 21.398438 176.511719 L 24.453125 197.878906 C 21.398438 194.824219 19.648438 198.75 20.523438 200.496094 C 20.960938 201.800781 22.707031 206.164062 25.328125 202.238281 C 28.820312 208.777344 32.316406 221.425781 37.117188 227.09375 C 51.964844 244.535156 71.179688 260.230469 86.898438 275.929688 C 90.828125 275.054688 93.886719 275.054688 94.757812 272.4375 C 96.070312 275.054688 93.449219 277.671875 91.265625 278.109375 C 98.253906 282.46875 106.113281 286.394531 116.59375 287.265625 C 130.132812 288.136719 142.796875 290.316406 154.585938 293.371094 C 160.699219 291.625 166.8125 290.753906 173.363281 290.316406 C 175.546875 290.316406 176.855469 286.828125 179.476562 285.957031 L 179.914062 281.597656 C 182.53125 285.519531 182.097656 280.289062 180.351562 277.671875 C 183.40625 280.289062 184.28125 282.46875 185.589844 284.210938 C 185.589844 282.90625 189.082031 278.109375 189.082031 283.777344 L 189.957031 278.109375 C 191.265625 277.234375 191.703125 282.90625 193.011719 278.980469 C 194.324219 275.054688 196.945312 278.105469 199.5625 276.800781 C 198.691406 278.542969 199.125 282.03125 202.183594 279.851562 L 205.675781 276.800781 C 207.859375 282.03125 211.355469 279.851562 213.101562 278.980469 C 232.3125 266.769531 251.527344 252.382812 269.867188 237.992188 L 269.433594 243.660156 L 271.617188 236.683594 C 273.796875 238.863281 275.546875 237.121094 276.417969 235.8125 C 279.039062 231.453125 282.53125 227.09375 288.210938 223.167969 C 281.222656 241.917969 272.925781 256.742188 262.445312 268.953125 L 258.078125 274.183594 C 258.078125 277.238281 257.203125 281.160156 253.710938 281.597656 C 251.964844 282.03125 248.472656 280.722656 245.851562 283.339844 C 244.542969 285.085938 248.910156 288.574219 245.414062 285.957031 C 242.359375 283.777344 239.300781 285.957031 235.808594 286.828125 C 233.1875 287.703125 237.554688 290.316406 238.429688 292.0625 C 239.300781 293.804688 240.175781 295.550781 239.738281 297.730469 L 234.933594 292.496094 C 229.257812 295.550781 225.765625 301.21875 220.960938 305.578125 C 218.777344 307.324219 219.652344 310.375 219.652344 312.992188 C 216.59375 312.992188 213.101562 312.117188 211.355469 313.863281 C 210.042969 315.605469 210.480469 318.222656 210.480469 320.839844 C 206.113281 320.402344 205.675781 313.863281 201.746094 315.171875 C 197.816406 316.042969 193.449219 316.480469 189.957031 318.660156 C 192.578125 323.890625 185.589844 320.839844 186.464844 321.710938 C 179.914062 317.789062 174.234375 314.734375 167.25 317.351562 C 152.402344 312.554688 134.0625 314.734375 120.523438 316.480469 C 120.523438 314.300781 120.960938 312.117188 120.085938 311.683594 C 119.214844 313.863281 116.59375 312.992188 117.03125 312.992188 C 108.734375 307.324219 100.4375 303.832031 91.703125 299.039062 C 83.84375 299.910156 76.417969 295.984375 74.234375 293.804688 C 68.121094 288.136719 61.136719 291.1875 55.457031 289.878906 C 43.230469 286.828125 38.863281 274.183594 37.554688 265.464844 C 36.679688 261.101562 33.1875 259.359375 31.878906 259.792969 C 26.203125 241.480469 17.46875 224.910156 10.480469 207.90625 C 8.734375 203.546875 9.171875 199.1875 9.171875 194.390625 C 11.355469 195.261719 13.539062 194.824219 13.101562 191.773438 C 10.917969 177.382812 5.675781 166.484375 0 156.019531 C 3.058594 141.195312 3.492188 123.753906 10.480469 110.671875 C 16.59375 98.898438 27.949219 92.792969 35.808594 82.765625 C 38.429688 79.277344 38.429688 74.480469 41.046875 71.429688 C 49.78125 62.707031 58.515625 53.550781 68.121094 45.703125 C 72.488281 42.214844 77.730469 45.703125 84.28125 44.394531 C 86.460938 36.546875 95.195312 29.570312 103.492188 31.75 C 106.988281 32.621094 113.972656 23.464844 116.15625 22.59375 C 119.648438 21.285156 117.902344 26.078125 117.902344 29.132812 C 126.199219 22.59375 137.554688 19.105469 148.035156 15.179688 "/>
<g clip-path="url(#clip1)" clip-rule="nonzero">
<path style=" stroke:none;fill-rule:nonzero;fill:rgb(29.411765%,0.784314%,53.333333%);fill-opacity:1;" d="M 153.273438 252.75 C 144.078125 252.75 135.820312 251.070312 128.496094 247.710938 C 121.171875 244.378906 114.988281 239.292969 109.9375 232.445312 C 104.859375 225.601562 100.964844 216.839844 98.253906 206.167969 C 95.511719 195.523438 94.140625 182.96875 94.140625 168.5 C 94.140625 154.03125 95.511719 141.460938 98.253906 130.785156 C 100.964844 120.144531 104.859375 111.398438 109.9375 104.554688 C 114.988281 97.707031 121.171875 92.605469 128.496094 89.246094 C 135.820312 85.914062 144.078125 84.25 153.273438 84.25 C 166.671875 84.25 177.421875 87.082031 185.527344 92.746094 C 193.628906 98.441406 200.015625 107.121094 204.691406 118.789062 L 189.734375 127.890625 C 186.773438 119.023438 182.535156 112.285156 177.019531 107.679688 C 171.472656 103.105469 163.554688 100.820312 153.273438 100.820312 C 140.808594 100.820312 131.191406 105.285156 124.429688 114.214844 C 117.636719 123.175781 114.238281 135.203125 114.238281 150.296875 L 114.238281 186.703125 C 114.238281 201.796875 117.636719 213.808594 124.429688 222.738281 C 131.191406 231.699219 140.808594 236.179688 153.273438 236.179688 C 163.867188 236.179688 172.046875 233.722656 177.8125 228.804688 C 183.578125 223.917969 187.941406 216.808594 190.902344 207.472656 L 205.859375 216.808594 C 201.1875 228.480469 194.609375 237.378906 186.132812 243.507812 C 177.625 249.667969 166.671875 252.75 153.273438 252.75 Z M 153.273438 252.75 "/>
</g>
</g>
</svg>
